<svg width="24" height="24" viewBox="0 0 24 24" fill="none" xmlns="http://www.w3.org/2000/svg">
<path d="M10.675 21.1555V18.8195H6.93798C6.58648 18.8195 6.2499 18.7531 5.92823 18.6203C5.60656 18.4872 5.32106 18.2961 5.07173 18.0468L3.45973 16.4348C3.19373 16.1689 3.06073 15.8555 3.06073 15.4945C3.06073 15.1337 3.19373 14.8203 3.45973 14.5543L5.07173 12.9425C5.32106 12.6932 5.60656 12.502 5.92823 12.369C6.2499 12.236 6.58648 12.1695 6.93798 12.1695H10.675V10.1695H4.84448C4.47648 10.1695 4.16365 10.0408 3.90598 9.78325C3.64831 9.52558 3.51948 9.21267 3.51948 8.8445V4.8445C3.51948 4.4765 3.64831 4.16367 3.90598 3.906C4.16365 3.64833 4.47648 3.5195 4.84448 3.5195H10.675V2.8445C10.675 2.4765 10.8038 2.16367 11.0615 1.906C11.319 1.64833 11.6318 1.5195 12 1.5195C12.3681 1.5195 12.681 1.64833 12.9385 1.906C13.1961 2.16367 13.325 2.4765 13.325 2.8445V3.5195H17.062C17.4135 3.5195 17.7501 3.586 18.0717 3.719C18.3934 3.852 18.6789 4.04317 18.9282 4.2925L20.5402 5.90425C20.8062 6.17025 20.9392 6.48367 20.9392 6.8445C20.9392 7.20533 20.8062 7.51875 20.5402 7.78475L18.9282 9.39675C18.6789 9.64608 18.3934 9.83717 18.0717 9.97C17.7501 10.103 17.4135 10.1695 17.062 10.1695H13.325V12.1695H19.1555C19.5235 12.1695 19.8363 12.2983 20.094 12.556C20.3516 12.8137 20.4805 13.1265 20.4805 13.4945V17.4945C20.4805 17.8627 20.3516 18.1756 20.094 18.4333C19.8363 18.6908 19.5235 18.8195 19.1555 18.8195H13.325V21.1555C13.325 21.5235 13.1961 21.8363 12.9385 22.094C12.681 22.3517 12.3681 22.4805 12 22.4805C11.6318 22.4805 11.319 22.3517 11.0615 22.094C10.8038 21.8363 10.675 21.5235 10.675 21.1555ZM5.95748 7.7315H17.1607L18.0477 6.8445L17.1607 5.9435H5.95748V7.7315ZM6.83923 16.3957H18.0425V14.6077H6.83923L5.95223 15.4945L6.83923 16.3957Z" fill="#5C5C5C"/>
</svg>
