<svg width="24" height="24" viewBox="0 0 24 24" fill="none" xmlns="http://www.w3.org/2000/svg">
<path d="M11.7 12.4478L15.374 8.7741C15.6231 8.52476 15.9318 8.4001 16.3 8.4001C16.6681 8.4001 16.9768 8.52476 17.226 8.7741C17.4753 9.02326 17.6 9.33193 17.6 9.7001C17.6 10.0683 17.4753 10.3769 17.226 10.6261L12.6402 15.2121C12.5119 15.3403 12.3659 15.437 12.2022 15.5023C12.0384 15.5675 11.871 15.6001 11.7 15.6001C11.529 15.6001 11.3616 15.5675 11.1977 15.5023C11.0341 15.437 10.8881 15.3403 10.7597 15.2121L6.17397 10.6261C5.92464 10.3769 5.79998 10.0683 5.79998 9.7001C5.79998 9.33193 5.92464 9.02326 6.17397 8.7741C6.42314 8.52476 6.73181 8.4001 7.09998 8.4001C7.46814 8.4001 7.77681 8.52476 8.02598 8.7741L11.7 12.4478Z" fill="#5C5C5C"/>
</svg>
