<svg width="24" height="24" viewBox="0 0 24 24" fill="none" xmlns="http://www.w3.org/2000/svg">
<path d="M12 22.4805C10.5673 22.4805 9.21439 22.2038 7.94122 21.6505C6.66805 21.0973 5.55614 20.3453 4.60547 19.3945C3.65464 18.4438 2.90264 17.3319 2.34947 16.0587C1.79614 14.7856 1.51947 13.4327 1.51947 12C1.51947 10.5602 1.79614 9.20542 2.34947 7.93575C2.90264 6.66625 3.65464 5.55617 4.60547 4.6055C5.55614 3.65467 6.66805 2.90267 7.94122 2.3495C9.21439 1.79617 10.5673 1.5195 12 1.5195C13.4398 1.5195 14.7946 1.79617 16.0642 2.3495C17.3337 2.90267 18.4438 3.65467 19.3945 4.6055C20.3453 5.55617 21.0973 6.66625 21.6505 7.93575C22.2038 9.20542 22.4805 10.5602 22.4805 12C22.4805 13.4327 22.2038 14.7856 21.6505 16.0587C21.0973 17.3319 20.3453 18.4438 19.3945 19.3945C18.4438 20.3453 17.3337 21.0973 16.0642 21.6505C14.7946 22.2038 13.4398 22.4805 12 22.4805ZM11.9717 19.7945C12.3674 19.2133 12.7236 18.6002 13.0402 17.955C13.3569 17.3097 13.6152 16.6298 13.8152 15.9152H10.1707C10.3707 16.6298 10.622 17.3097 10.9245 17.955C11.227 18.6002 11.5761 19.2133 11.9717 19.7945ZM9.44247 19.3945C9.12364 18.8633 8.86114 18.3019 8.65497 17.7103C8.4488 17.1186 8.27072 16.5203 8.12072 15.9152H5.25547C5.71047 16.7297 6.29339 17.4406 7.00422 18.0478C7.71522 18.6551 8.52797 19.104 9.44247 19.3945ZM14.5152 19.3945C15.4297 19.104 16.2471 18.6551 16.9675 18.0478C17.6876 17.4406 18.2753 16.7297 18.7305 15.9152H15.8652C15.7152 16.5203 15.5324 17.1186 15.3167 17.7103C15.1012 18.3019 14.8341 18.8633 14.5152 19.3945ZM4.41947 13.9575H7.72072C7.67072 13.6242 7.63322 13.2998 7.60822 12.9843C7.58322 12.6686 7.57072 12.3405 7.57072 12C7.57072 11.65 7.58322 11.3196 7.60822 11.0087C7.63322 10.6979 7.67072 10.3758 7.72072 10.0425H4.41947C4.33614 10.3663 4.27364 10.6861 4.23197 11.0017C4.1903 11.3173 4.16947 11.65 4.16947 12C4.16947 12.3405 4.1903 12.6709 4.23197 12.9913C4.27364 13.3116 4.33614 13.6337 4.41947 13.9575ZM9.72072 13.9575H14.2652C14.3152 13.6242 14.348 13.2998 14.3635 12.9843C14.3791 12.6686 14.387 12.3405 14.387 12C14.387 11.65 14.3791 11.3196 14.3635 11.0087C14.348 10.6979 14.3152 10.3758 14.2652 10.0425H9.72072C9.67072 10.3758 9.63322 10.6979 9.60822 11.0087C9.58322 11.3196 9.57072 11.65 9.57072 12C9.57072 12.3405 9.58322 12.6686 9.60822 12.9843C9.63322 13.2998 9.67072 13.6242 9.72072 13.9575ZM16.2652 13.9575H19.5522C19.6356 13.6337 19.6981 13.3116 19.7397 12.9913C19.7814 12.6709 19.8022 12.3405 19.8022 12C19.8022 11.65 19.7814 11.3173 19.7397 11.0017C19.6981 10.6861 19.6356 10.3663 19.5522 10.0425H16.2652C16.3057 10.3758 16.3361 10.6979 16.3565 11.0087C16.3768 11.3196 16.387 11.65 16.387 12C16.387 12.3405 16.3768 12.6686 16.3565 12.9843C16.3361 13.2998 16.3057 13.6242 16.2652 13.9575ZM15.8652 8.07075H18.7305C18.2753 7.25625 17.6876 6.54767 16.9675 5.945C16.2471 5.3425 15.4297 4.896 14.5152 4.6055C14.8341 5.13667 15.1012 5.69567 15.3167 6.2825C15.5324 6.8695 15.7152 7.46558 15.8652 8.07075ZM10.1707 8.07075H13.8152C13.6246 7.35625 13.3709 6.67867 13.0542 6.038C12.7376 5.3975 12.3767 4.78667 11.9717 4.2055C11.5761 4.78667 11.227 5.3975 10.9245 6.038C10.622 6.67867 10.3707 7.35625 10.1707 8.07075ZM5.25547 8.07075H8.12072C8.27072 7.46558 8.4488 6.8695 8.65497 6.2825C8.86114 5.69567 9.12364 5.13667 9.44247 4.6055C8.52797 4.896 7.71522 5.3425 7.00422 5.945C6.29339 6.54767 5.71047 7.25625 5.25547 8.07075Z" fill="#5C5C5C"/>
</svg>
