<svg width="24" height="24" viewBox="0 0 24 24" fill="none" xmlns="http://www.w3.org/2000/svg">
<path d="M11.9857 20.749C11.6677 20.749 11.3526 20.6908 11.0402 20.5745C10.7279 20.4582 10.4471 20.2801 10.1977 20.0403L8.44447 18.437C6.69664 16.8485 5.10555 15.242 3.67122 13.6175C2.23672 11.9928 1.51947 10.1703 1.51947 8.15C1.51947 6.442 2.08689 5.01592 3.22172 3.87175C4.35655 2.72759 5.77789 2.1555 7.48572 2.1555C8.35022 2.1555 9.16947 2.32175 9.94347 2.65425C10.7173 2.98692 11.3981 3.45942 11.9857 4.07175C12.5736 3.45942 13.2544 2.98692 14.0282 2.65425C14.8022 2.32175 15.6214 2.1555 16.4857 2.1555C18.1937 2.1555 19.6222 2.72759 20.7712 3.87175C21.9201 5.01592 22.4945 6.442 22.4945 8.15C22.4945 10.1703 21.7744 11.997 20.3342 13.63C18.8941 15.2628 17.2834 16.8782 15.5022 18.476L13.788 20.0543C13.5388 20.2943 13.2556 20.47 12.9385 20.5815C12.6215 20.6932 12.3039 20.749 11.9857 20.749Z" fill="#5C5C5C"/>
</svg>
