<svg width="24" height="24" viewBox="0 0 24 24" fill="none" xmlns="http://www.w3.org/2000/svg">
<path d="M4.99249 22.0458C4.72649 22.0458 4.47174 21.9947 4.22824 21.8925C3.98474 21.7903 3.76807 21.6443 3.57824 21.4545L2.65224 20.5283C2.43841 20.3146 2.38732 20.0724 2.49899 19.8018C2.61049 19.5311 2.81591 19.3958 3.11524 19.3958H20.8847C21.1841 19.3958 21.3895 19.5311 21.501 19.8018C21.6127 20.0724 21.5616 20.3146 21.3477 20.5283L20.4217 21.4545C20.2319 21.6443 20.0152 21.7903 19.7717 21.8925C19.5282 21.9947 19.2735 22.0458 19.0075 22.0458H4.99249ZM2.51949 18.3958C2.60066 18.0393 2.72732 17.6998 2.89949 17.3773C3.07182 17.0549 3.27849 16.7528 3.51949 16.4707V9.1695H3.38249C3.13316 9.1695 2.92699 9.088 2.76399 8.925C2.60099 8.762 2.51949 8.55583 2.51949 8.3065C2.51949 8.05717 2.60099 7.851 2.76399 7.688C2.92699 7.525 3.13316 7.4435 3.38249 7.4435H3.51949V6.72175H3.38249C3.13316 6.72175 2.92699 6.63675 2.76399 6.46675C2.60099 6.29692 2.51949 6.0895 2.51949 5.8445C2.51949 5.59967 2.60449 5.39458 2.77449 5.22925C2.94432 5.06408 3.15174 4.9815 3.39674 4.9815H3.51949V4.25975H3.38249C3.13316 4.25975 2.92699 4.17483 2.76399 4.005C2.60099 3.835 2.51949 3.6275 2.51949 3.3825C2.51949 3.13767 2.60449 2.93258 2.77449 2.76725C2.94432 2.60208 3.15174 2.5195 3.39674 2.5195H9.20874C9.87174 2.5195 10.4321 2.74833 10.8897 3.206C11.3472 3.66367 11.576 4.224 11.576 4.887V4.9815H19.8685C20.1178 4.9815 20.324 5.063 20.487 5.226C20.65 5.389 20.7315 5.59517 20.7315 5.8445C20.7315 6.09383 20.65 6.3 20.487 6.463C20.324 6.626 20.1178 6.7075 19.8685 6.7075H11.576V6.81625C11.576 7.46992 11.3472 8.02558 10.8897 8.48325C10.4321 8.94075 9.87641 9.1695 9.22274 9.1695H7.88699V15.0718C8.00733 15.0956 8.12808 15.1244 8.24924 15.1583C8.37041 15.1919 8.48299 15.2424 8.58699 15.3098C9.07683 14.1511 9.83924 13.2298 10.8742 12.5458C11.9094 11.8616 13.0535 11.5195 14.3065 11.5195C15.995 11.5195 17.4461 12.0862 18.6597 13.2195C19.8736 14.3528 20.4805 15.7507 20.4805 17.413V18.3958H2.51949ZM11.3782 15.7458H17.1695C16.8768 15.2399 16.4743 14.8508 15.962 14.5783C15.4497 14.3058 14.8978 14.1695 14.3065 14.1695C13.7007 14.1695 13.1391 14.3068 12.6217 14.5815C12.1044 14.8562 11.6899 15.2443 11.3782 15.7458ZM7.88699 4.9815H9.36399V4.25975H7.88699V4.9815ZM7.88699 7.4435H9.36399V6.72175H7.88699V7.4435ZM5.24574 4.9815H6.16074V4.25975H5.24574V4.9815ZM5.24574 7.4435H6.16074V6.72175H5.24574V7.4435ZM5.24574 15.2653C5.39357 15.1913 5.54191 15.1358 5.69074 15.099C5.83958 15.062 5.99624 15.0274 6.16074 14.9953V9.1695H5.24574V15.2653Z" fill="#5C5C5C"/>
</svg>
