<svg width="24" height="24" viewBox="0 0 24 24" fill="none" xmlns="http://www.w3.org/2000/svg">
<path d="M8.00002 20.6782C7.26169 20.6782 6.63544 20.4212 6.12127 19.907C5.6071 19.393 5.35002 18.7667 5.35002 18.0282V16.1977C5.35002 15.8297 5.47886 15.5169 5.73652 15.2592C5.99402 15.0016 6.30685 14.8727 6.67502 14.8727H8.51952V12.6227C8.05719 12.5612 7.60144 12.4406 7.15227 12.2607C6.70294 12.0811 6.29494 11.8304 5.92827 11.5087C5.80944 11.3992 5.72085 11.2749 5.66252 11.1357C5.60419 10.9967 5.57502 10.8512 5.57502 10.699V10.137H5.04777C4.86744 10.137 4.69827 10.1026 4.54027 10.0337C4.38227 9.96491 4.2391 9.86633 4.11077 9.738L1.93152 7.55874C1.71269 7.33991 1.60327 7.07833 1.60327 6.774C1.60327 6.46966 1.71744 6.208 1.94577 5.989C2.51377 5.50566 3.1826 5.14916 3.95227 4.9195C4.72177 4.68983 5.46702 4.575 6.18802 4.575C6.57202 4.575 6.95769 4.60599 7.34502 4.66799C7.73235 4.72983 8.12385 4.83358 8.51952 4.97925C8.51952 4.51125 8.68111 4.11558 9.00427 3.79225C9.32744 3.46908 9.7231 3.3075 10.1913 3.3075H18.8305C19.5689 3.3075 20.1951 3.56458 20.7093 4.07875C21.2234 4.59291 21.4805 5.21916 21.4805 5.9575V17.1977C21.4805 18.1536 21.1394 18.9727 20.457 19.655C19.7749 20.3372 18.9559 20.6782 18 20.6782H8.00002ZM11.1695 14.8727H15.8445C16.2127 14.8727 16.5256 15.0016 16.7833 15.2592C17.0408 15.5169 17.1695 15.8297 17.1695 16.1977V17.1977C17.1695 17.4341 17.2489 17.6316 17.4075 17.7902C17.5664 17.9489 17.7639 18.0282 18 18.0282C18.2362 18.0282 18.4337 17.9489 18.5925 17.7902C18.7512 17.6316 18.8305 17.4341 18.8305 17.1977V5.9575H11.1695V6.6L16.3575 11.8022C16.5264 11.9711 16.6299 12.1654 16.668 12.3852C16.706 12.6052 16.6834 12.8116 16.6 13.0042C16.5167 13.1971 16.3883 13.3571 16.2148 13.4842C16.0411 13.6114 15.8282 13.675 15.576 13.675C15.4239 13.675 15.2806 13.6458 15.1463 13.5875C15.0118 13.5292 14.8934 13.4489 14.7913 13.3467L12.538 11.0792L12.4228 11.1945C12.2271 11.3902 12.026 11.5679 11.8195 11.7277C11.613 11.8876 11.3964 12.0127 11.1695 12.1032V14.8727ZM5.43052 7.925H6.46202C6.83002 7.925 7.14285 8.05383 7.40052 8.3115C7.65819 8.569 7.78702 8.88183 7.78702 9.25V10.1175C7.96819 10.2225 8.16235 10.3 8.36952 10.35C8.57685 10.4 8.78302 10.425 8.98802 10.425C9.34319 10.425 9.66786 10.369 9.96202 10.257C10.2562 10.145 10.5344 9.95791 10.7968 9.69575L10.9543 9.538L9.65327 8.22274C9.16994 7.73941 8.63769 7.37933 8.05652 7.1425C7.47536 6.9055 6.85252 6.78699 6.18802 6.78699C5.89236 6.78699 5.61102 6.80724 5.34402 6.84774C5.07702 6.88841 4.81236 6.954 4.55002 7.0445L5.43052 7.925ZM14.5195 17.0847H8.00002V18.0282H14.6695C14.6195 17.8877 14.582 17.7412 14.557 17.5885C14.532 17.436 14.5195 17.2681 14.5195 17.0847Z" fill="#5C5C5C"/>
</svg>
