<svg width="24" height="24" viewBox="0 0 24 24" fill="none" xmlns="http://www.w3.org/2000/svg">
<path d="M6.16947 18.8305H8.67497V14C8.67497 13.6318 8.8038 13.319 9.06147 13.0615C9.31897 12.8038 9.6318 12.675 9.99997 12.675H14C14.3681 12.675 14.681 12.8038 14.9385 13.0615C15.1961 13.319 15.325 13.6318 15.325 14V18.8305H17.8305V10.0848L12 5.71201L6.16947 10.0848V18.8305ZM3.51947 18.8305V10.0848C3.51947 9.66676 3.61155 9.27076 3.79572 8.89676C3.97972 8.52276 4.23914 8.21118 4.57397 7.96201L10.4042 3.58901C10.8767 3.22818 11.4086 3.04776 12 3.04776C12.5913 3.04776 13.1232 3.22818 13.5957 3.58901L19.426 7.96201C19.7608 8.21118 20.0202 8.52276 20.2042 8.89676C20.3884 9.27076 20.4805 9.66676 20.4805 10.0848V18.8305C20.4805 19.5688 20.2234 20.1951 19.7092 20.7093C19.1951 21.2234 18.5688 21.4805 17.8305 21.4805H14.212C13.8438 21.4805 13.5309 21.3517 13.2732 21.094C13.0157 20.8363 12.887 20.5235 12.887 20.1555V15.113H11.113V20.1555C11.113 20.5235 10.9842 20.8363 10.7267 21.094C10.4691 21.3517 10.1561 21.4805 9.78797 21.4805H6.16947C5.43114 21.4805 4.80489 21.2234 4.29072 20.7093C3.77655 20.1951 3.51947 19.5688 3.51947 18.8305Z" fill="#5C5C5C"/>
</svg>
