<svg width="24" height="24" viewBox="0 0 24 24" fill="none" xmlns="http://www.w3.org/2000/svg">
<path d="M3.51947 18.8305V10.0848C3.51947 9.66443 3.61155 9.26784 3.79572 8.89501C3.97972 8.52218 4.23914 8.21118 4.57397 7.96201L10.4042 3.58901C10.8767 3.22818 11.4086 3.04776 12 3.04776C12.5913 3.04776 13.1232 3.22818 13.5957 3.58901L19.426 7.96201C19.7608 8.21118 20.0202 8.52218 20.2042 8.89501C20.3884 9.26784 20.4805 9.66443 20.4805 10.0848V18.8305C20.4805 19.5688 20.2234 20.1951 19.7092 20.7093C19.1951 21.2234 18.5688 21.4805 17.8305 21.4805H15.438C15.07 21.4805 14.7571 21.3517 14.4995 21.094C14.2418 20.8363 14.113 20.5235 14.113 20.1555V15.212C14.113 14.8438 13.9842 14.5309 13.7267 14.2733C13.4691 14.0158 13.1561 13.887 12.788 13.887H11.212C10.8438 13.887 10.5309 14.0158 10.2732 14.2733C10.0157 14.5309 9.88697 14.8438 9.88697 15.212V20.1555C9.88697 20.5235 9.75814 20.8363 9.50047 21.094C9.2428 21.3517 8.92997 21.4805 8.56197 21.4805H6.16947C5.43114 21.4805 4.80489 21.2234 4.29072 20.7093C3.77655 20.1951 3.51947 19.5688 3.51947 18.8305Z" fill="#5C5C5C"/>
</svg>
