<svg width="24" height="24" viewBox="0 0 24 24" fill="none" xmlns="http://www.w3.org/2000/svg">
<path d="M12 19.8467C11.6225 19.8467 11.2557 19.7677 10.8995 19.6097C10.5433 19.4517 10.2322 19.2137 9.96624 18.8957L2.85324 10.3532C2.65607 10.1134 2.50591 9.84983 2.40274 9.56249C2.29941 9.27516 2.24774 8.97716 2.24774 8.66849C2.24774 8.47133 2.26732 8.27008 2.30649 8.06474C2.34566 7.85924 2.41632 7.66158 2.51849 7.47174L4.13899 4.24124C4.36949 3.79491 4.69541 3.44116 5.11674 3.17999C5.53824 2.91866 6.00182 2.78799 6.50749 2.78799H17.4925C17.9982 2.78799 18.4617 2.91866 18.8832 3.17999C19.3046 3.44116 19.6305 3.79491 19.861 4.24124L21.4815 7.47174C21.5837 7.66158 21.6543 7.85924 21.6935 8.06474C21.7327 8.27008 21.7522 8.47133 21.7522 8.66849C21.7522 8.97716 21.7006 9.27516 21.5972 9.56249C21.4941 9.84983 21.3439 10.1134 21.1467 10.3532L14.0337 18.8957C13.7677 19.2137 13.4567 19.4517 13.1005 19.6097C12.7443 19.7677 12.3775 19.8467 12 19.8467ZM9.61074 7.99999H14.3892L12.988 5.21199H11.012L9.61074 7.99999ZM11 16.3357V9.99999H5.73249L11 16.3357ZM13 16.3357L18.2675 9.99999H13V16.3357ZM16.6282 7.99999H19.0097L17.6227 5.21199H15.2272L16.6282 7.99999ZM4.99024 7.99999H7.37174L8.77274 5.21199H6.37724L4.99024 7.99999Z" fill="#5C5C5C"/>
</svg>
