<svg width="24" height="24" viewBox="0 0 24 24" fill="none" xmlns="http://www.w3.org/2000/svg">
<mask id="mask0_2189_1075" style="mask-type:alpha" maskUnits="userSpaceOnUse" x="0" y="0" width="24" height="24">
<rect width="24" height="24" fill="#D9D9D9"/>
</mask>
<g mask="url(#mask0_2189_1075)">
<path d="M12 11.575C10.65 11.575 9.50419 11.1042 8.56252 10.1625C7.62086 9.22083 7.15002 8.07499 7.15002 6.72499C7.15002 5.37499 7.62086 4.23333 8.56252 3.29999C9.50419 2.36666 10.65 1.89999 12 1.89999C13.35 1.89999 14.4959 2.36666 15.4375 3.29999C16.3792 4.23333 16.85 5.37499 16.85 6.72499C16.85 8.07499 16.3792 9.22083 15.4375 10.1625C14.4959 11.1042 13.35 11.575 12 11.575ZM3.15002 21.275V17.575C3.15002 16.8533 3.33919 16.19 3.71752 15.585C4.09569 14.98 4.59819 14.5183 5.22502 14.2C6.30836 13.6667 7.41636 13.2625 8.54902 12.9875C9.68169 12.7125 10.832 12.575 12 12.575C13.2 12.575 14.3667 12.7083 15.5 12.975C16.6334 13.2417 17.725 13.6417 18.775 14.175C19.4019 14.491 19.9044 14.9492 20.2825 15.5495C20.6609 16.1498 20.85 16.8246 20.85 17.5737V21.275H3.15002Z" fill="#5C5C5C"/>
</g>
</svg>
