<svg width="24" height="24" viewBox="0 0 24 24" fill="none" xmlns="http://www.w3.org/2000/svg">
<mask id="mask0_2127_1005" style="mask-type:alpha" maskUnits="userSpaceOnUse" x="0" y="0" width="24" height="24">
<rect width="24" height="24" fill="#D9D9D9"/>
</mask>
<g mask="url(#mask0_2127_1005)">
<path d="M12.001 11.6403C10.6978 11.6403 9.59357 11.1866 8.68824 10.2793C7.78307 9.37209 7.33049 8.26826 7.33049 6.96776C7.33049 5.66709 7.78274 4.56517 8.68724 3.66201C9.5919 2.75867 10.6958 2.30701 11.999 2.30701C13.3022 2.30701 14.4064 2.75842 15.3117 3.66126C16.2169 4.56409 16.6695 5.66726 16.6695 6.97076C16.6695 8.26926 16.2172 9.37209 15.3127 10.2793C14.4081 11.1866 13.3042 11.6403 12.001 11.6403ZM3.15424 21.6028V17.932C3.15424 17.2257 3.32649 16.5891 3.67099 16.0223C4.01549 15.4554 4.47315 15.0228 5.04399 14.7245C6.14399 14.1578 7.27707 13.7328 8.44324 13.4495C9.6094 13.1662 10.7938 13.0245 11.9965 13.0245C13.2068 13.0245 14.3953 13.1662 15.562 13.4495C16.7287 13.7328 17.86 14.1558 18.956 14.7185C19.5268 15.0163 19.9845 15.4481 20.329 16.0138C20.6735 16.5796 20.8457 17.2189 20.8457 17.9318V21.6028H3.15424ZM5.98374 18.7733H18.0162V17.962C18.0162 17.7825 17.9843 17.6329 17.9205 17.5133C17.8567 17.3934 17.7703 17.3077 17.6615 17.256C16.7727 16.818 15.8434 16.4748 14.8737 16.2263C13.9039 15.9779 12.945 15.8538 11.997 15.8538C11.057 15.8538 10.0991 15.9748 9.12324 16.2168C8.14757 16.4589 7.21932 16.8053 6.33849 17.256C6.22965 17.291 6.14332 17.3726 6.07949 17.5008C6.01565 17.6288 5.98374 17.7825 5.98374 17.962V18.7733ZM11.9997 8.81076C12.5132 8.81076 12.9484 8.63251 13.3052 8.27601C13.6619 7.91951 13.8402 7.48442 13.8402 6.97076C13.8402 6.45726 13.6619 6.02217 13.3052 5.66551C12.9487 5.30884 12.5137 5.13051 12.0002 5.13051C11.4867 5.13051 11.0516 5.30917 10.6947 5.66651C10.3381 6.02401 10.1597 6.45876 10.1597 6.97076C10.1597 7.48426 10.3381 7.91934 10.6947 8.27601C11.0512 8.63251 11.4862 8.81076 11.9997 8.81076Z" fill="#5C5C5C"/>
</g>
</svg>
