<svg width="24" height="24" viewBox="0 0 24 24" fill="none" xmlns="http://www.w3.org/2000/svg">
<path d="M7.00003 22.0898C6.45003 22.0898 5.9792 21.8939 5.58753 21.5023C5.19586 21.1106 5.00003 20.6398 5.00003 20.0898C5.00003 19.5398 5.19586 19.0689 5.58753 18.6772C5.9792 18.2856 6.45003 18.0898 7.00003 18.0898C7.55003 18.0898 8.02086 18.2856 8.41253 18.6772C8.80419 19.0689 9.00003 19.5398 9.00003 20.0898C9.00003 20.6398 8.80419 21.1106 8.41253 21.5023C8.02086 21.8939 7.55003 22.0898 7.00003 22.0898ZM17 22.0898C16.45 22.0898 15.9792 21.8939 15.5875 21.5023C15.1959 21.1106 15 20.6398 15 20.0898C15 19.5398 15.1959 19.0689 15.5875 18.6772C15.9792 18.2856 16.45 18.0898 17 18.0898C17.55 18.0898 18.0209 18.2856 18.4125 18.6772C18.8042 19.0689 19 19.5398 19 20.0898C19 20.6398 18.8042 21.1106 18.4125 21.5023C18.0209 21.8939 17.55 22.0898 17 22.0898ZM6.29953 6.08975L8.56203 10.8147H15.538L18.1325 6.08975H6.29953ZM5.25378 3.91025H19.7768C20.2303 3.91025 20.5754 4.111 20.812 4.5125C21.0485 4.914 21.0572 5.32158 20.838 5.73525L17.4255 11.9022C17.2342 12.2474 16.9775 12.5167 16.6555 12.71C16.3334 12.9033 15.9808 13 15.5978 13H8.20178L7.15553 14.9102H18C18.3087 14.9102 18.5675 15.0147 18.7765 15.2235C18.9854 15.4325 19.0898 15.6913 19.0898 16C19.0898 16.3087 18.9854 16.5675 18.7765 16.7765C18.5675 16.9853 18.3087 17.0898 18 17.0898H7.00003C6.20619 17.0898 5.60961 16.7446 5.21028 16.0542C4.81111 15.3641 4.79644 14.6801 5.16628 14.0022L6.49828 11.6L2.94628 4.08975H2.00003C1.69136 4.08975 1.43253 3.98533 1.22353 3.7765C1.01469 3.5675 0.910278 3.30867 0.910278 3C0.910278 2.69133 1.01469 2.4325 1.22353 2.2235C1.43253 2.01467 1.69136 1.91025 2.00003 1.91025H3.58928C3.80045 1.91025 4.00053 1.967 4.18953 2.0805C4.37853 2.194 4.52028 2.35483 4.61478 2.563L5.25378 3.91025Z" fill="#5C5C5C"/>
</svg>
