<svg width="24" height="24" viewBox="0 0 24 24" fill="none" xmlns="http://www.w3.org/2000/svg">
<path d="M1.56201 19V5.438C1.56201 4.69967 1.8191 4.07342 2.33326 3.55925C2.84726 3.04508 3.47351 2.788 4.21201 2.788H9.78801C10.5265 2.788 11.1528 3.04508 11.6668 3.55925C12.1809 4.07342 12.438 4.69967 12.438 5.438V6.788H19.788C20.5265 6.788 21.1528 7.04508 21.6668 7.55925C22.1809 8.07342 22.438 8.69967 22.438 9.438V19C22.438 19.7383 22.1809 20.3646 21.6668 20.8787C21.1528 21.3929 20.5265 21.65 19.788 21.65H4.21201C3.47351 21.65 2.84726 21.3929 2.33326 20.8787C1.8191 20.3646 1.56201 19.7383 1.56201 19ZM4.00001 19.212H6.00001V17.212H4.00001V19.212ZM4.00001 15.212H6.00001V13.212H4.00001V15.212ZM4.00001 11.212H6.00001V9.212H4.00001V11.212ZM4.00001 7.212H6.00001V5.212H4.00001V7.212ZM8.00001 19.212H10V17.212H8.00001V19.212ZM8.00001 15.212H10V13.212H8.00001V15.212ZM8.00001 11.212H10V9.212H8.00001V11.212ZM8.00001 7.212H10V5.212H8.00001V7.212ZM12 19.212H20V9.212H12V11.212H14V13.212H12V15.212H14V17.212H12V19.212ZM16 13.212V11.212H18V13.212H16ZM16 17.212V15.212H18V17.212H16Z" fill="#5C5C5C"/>
</svg>
