<svg width="24" height="24" viewBox="0 0 24 24" fill="none" xmlns="http://www.w3.org/2000/svg">
<path d="M18.8718 20.6532L14.1478 15.9295C13.8891 15.6707 13.7621 15.3596 13.7668 14.9963C13.7716 14.6328 13.8986 14.3217 14.1478 14.063C14.4066 13.8043 14.72 13.675 15.088 13.675C15.4562 13.675 15.7696 13.8043 16.0283 14.063L20.738 18.787C20.9874 19.0362 21.112 19.3448 21.112 19.713C21.112 20.0812 20.9874 20.3899 20.738 20.6392C20.4889 20.8979 20.1802 21.0296 19.812 21.0343C19.4439 21.0389 19.1304 20.9119 18.8718 20.6532ZM4.07278 18.613C3.49028 17.6855 3.05278 16.7205 2.76028 15.718C2.46794 14.7153 2.32178 13.6967 2.32178 12.662C2.32178 11.3055 2.57286 9.99167 3.07503 8.7205C3.57719 7.4495 4.34236 6.29992 5.37053 5.27175C6.39886 4.24342 7.54561 3.48108 8.81078 2.98475C10.0761 2.48842 11.3823 2.24025 12.7293 2.24025C13.7641 2.24025 14.7852 2.38825 15.7925 2.68425C16.7997 2.98025 17.7634 3.41958 18.6838 4.00225C19.2663 4.37325 19.5766 4.90942 19.6148 5.61075C19.6528 6.31225 19.4054 6.92933 18.8728 7.462L7.53253 18.8022C7.00003 19.3347 6.38119 19.582 5.67603 19.544C4.97103 19.506 4.43661 19.1957 4.07278 18.613ZM5.99453 16.5717L7.30228 15.2923C7.04494 14.9517 6.80253 14.6099 6.57503 14.2668C6.34753 13.9238 6.14319 13.583 5.96203 13.2445C5.78086 12.9062 5.61994 12.5678 5.47928 12.2293C5.33878 11.8909 5.21486 11.5562 5.10753 11.225C4.96203 12.1612 4.95661 13.0833 5.09128 13.9913C5.22611 14.8993 5.52719 15.7594 5.99453 16.5717ZM8.73803 13.8783L13.963 8.6175C13.284 8.124 12.6079 7.71342 11.9348 7.38575C11.2616 7.05825 10.6295 6.82733 10.0385 6.693C9.44769 6.5585 8.91219 6.52825 8.43203 6.60225C7.95203 6.67608 7.56561 6.85942 7.27278 7.15225C6.98011 7.45225 6.79678 7.84225 6.72278 8.32225C6.64894 8.80242 6.67919 9.33975 6.81353 9.93425C6.94803 10.5288 7.17903 11.1632 7.50653 11.8375C7.83403 12.5118 8.24453 13.1921 8.73803 13.8783ZM16.6923 5.90975C15.8656 5.44242 14.9959 5.13717 14.0833 4.994C13.1704 4.85083 12.2459 4.86042 11.3098 5.02275C11.6576 5.13008 12.0007 5.254 12.339 5.3945C12.6775 5.53517 13.0159 5.69425 13.3543 5.87175C13.6928 6.04925 14.0294 6.25175 14.364 6.47925C14.6989 6.70692 15.0366 6.953 15.3773 7.2175L16.6923 5.90975Z" fill="#5C5C5C"/>
</svg>
