<svg width="24" height="24" viewBox="0 0 24 24" fill="none" xmlns="http://www.w3.org/2000/svg">
<path d="M11.7 11.5523L8.02599 15.2261C7.77682 15.4754 7.46815 15.6001 7.09999 15.6001C6.73182 15.6001 6.42316 15.4754 6.17399 15.2261C5.92465 14.9769 5.79999 14.6683 5.79999 14.3001C5.79999 13.9319 5.92465 13.6233 6.17399 13.3741L10.7597 8.7881C10.8881 8.65993 11.0341 8.56318 11.1977 8.49785C11.3616 8.43268 11.529 8.4001 11.7 8.4001C11.871 8.4001 12.0384 8.43268 12.2022 8.49785C12.3659 8.56318 12.5119 8.65993 12.6402 8.7881L17.226 13.3741C17.4753 13.6233 17.6 13.9319 17.6 14.3001C17.6 14.6683 17.4753 14.9769 17.226 15.2261C16.9768 15.4754 16.6682 15.6001 16.3 15.6001C15.9318 15.6001 15.6232 15.4754 15.374 15.2261L11.7 11.5523Z" fill="#5C5C5C"/>
</svg>
