<svg width="24" height="24" viewBox="0 0 24 24" fill="none" xmlns="http://www.w3.org/2000/svg">
<path d="M12.1477 12L8.47398 8.326C8.22464 8.07683 8.09998 7.76817 8.09998 7.4C8.09998 7.03183 8.22464 6.72317 8.47398 6.474C8.72314 6.22467 9.03181 6.1 9.39998 6.1C9.76814 6.1 10.0768 6.22467 10.326 6.474L14.912 11.0597C15.0401 11.1881 15.1369 11.3341 15.2022 11.4977C15.2674 11.6616 15.3 11.829 15.3 12C15.3 12.171 15.2674 12.3384 15.2022 12.5022C15.1369 12.6659 15.0401 12.8119 14.912 12.9402L10.326 17.526C10.0768 17.7753 9.76814 17.9 9.39998 17.9C9.03181 17.9 8.72314 17.7753 8.47398 17.526C8.22464 17.2768 8.09998 16.9682 8.09998 16.6C8.09998 16.2318 8.22464 15.9232 8.47398 15.674L12.1477 12Z" fill="#5C5C5C"/>
</svg>
