<svg width="24" height="24" viewBox="0 0 24 24" fill="none" xmlns="http://www.w3.org/2000/svg">
<path d="M11.9 13.7522L7.226 18.426C6.97683 18.6753 6.66817 18.8 6.3 18.8C5.93183 18.8 5.62317 18.6753 5.374 18.426C5.12467 18.1768 5 17.8682 5 17.5C5 17.1318 5.12467 16.8232 5.374 16.574L10.0477 11.9L5.374 7.226C5.12467 6.97683 5 6.66817 5 6.3C5 5.93183 5.12467 5.62317 5.374 5.374C5.62317 5.12467 5.93183 5 6.3 5C6.66817 5 6.97683 5.12467 7.226 5.374L11.9 10.0477L16.574 5.374C16.8232 5.12467 17.1318 5 17.5 5C17.8682 5 18.1768 5.12467 18.426 5.374C18.6753 5.62317 18.8 5.93183 18.8 6.3C18.8 6.66817 18.6753 6.97683 18.426 7.226L13.7523 11.9L18.426 16.574C18.6753 16.8232 18.8 17.1318 18.8 17.5C18.8 17.8682 18.6753 18.1768 18.426 18.426C18.1768 18.6753 17.8682 18.8 17.5 18.8C17.1318 18.8 16.8232 18.6753 16.574 18.426L11.9 13.7522Z" fill="#5C5C5C"/>
</svg>
