<svg width="24" height="24" viewBox="0 0 24 24" fill="none" xmlns="http://www.w3.org/2000/svg">
<path d="M1.53375 12C1.53375 10.5507 1.808 9.18942 2.3565 7.91625C2.905 6.64308 3.65284 5.53292 4.6 4.58575C5.54717 3.63875 6.65734 2.89092 7.9305 2.34225C9.20367 1.79375 10.5649 1.5195 12.0143 1.5195C14.1686 1.5195 16.0961 2.09817 17.7968 3.2555C19.4974 4.41267 20.7605 5.91625 21.586 7.76625C21.7403 8.12492 21.7468 8.48367 21.6055 8.8425C21.4642 9.20117 21.2094 9.44458 20.8413 9.57275C20.5088 9.68442 20.1793 9.65942 19.8528 9.49775C19.5263 9.33625 19.2895 9.08917 19.1425 8.7565C18.733 7.85067 18.1744 7.05208 17.4668 6.36075C16.7593 5.66958 15.9228 5.1345 14.9575 4.7555V5.12725C14.9575 5.66775 14.7617 6.12917 14.37 6.5115C13.9783 6.89367 13.5123 7.08475 12.9718 7.08475H11.0283V9.0425C11.0283 9.31633 10.9324 9.54908 10.7408 9.74075C10.5491 9.93242 10.3163 10.0283 10.0425 10.0283H8.08475V11.9718H8.675C9.04317 11.9718 9.356 12.1006 9.6135 12.3582C9.87117 12.6157 10 12.9286 10 13.2968V14.901H9.0565L4.38375 10.2283C4.33375 10.5189 4.28792 10.8095 4.24625 11.1C4.20459 11.3905 4.18375 11.6811 4.18375 11.9718C4.18375 13.8261 4.76034 15.4692 5.9135 16.901C7.06684 18.333 8.53767 19.2362 10.326 19.6108C10.668 19.7008 10.9359 19.8863 11.1298 20.1675C11.3236 20.4487 11.3876 20.7592 11.3218 21.099C11.2464 21.467 11.0658 21.7633 10.7798 21.988C10.4939 22.2127 10.1706 22.2801 9.80975 22.1903C7.43875 21.7048 5.46667 20.518 3.8935 18.63C2.32034 16.7418 1.53375 14.5318 1.53375 12ZM20.2588 21.125L17.9708 18.837C17.6301 19.0087 17.2715 19.1518 16.895 19.2663C16.5187 19.3808 16.1243 19.438 15.712 19.438C14.4055 19.438 13.2912 18.977 12.369 18.055C11.4468 17.1328 10.9858 16.0185 10.9858 14.712C10.9858 13.4055 11.4468 12.2935 12.369 11.376C13.2912 10.4587 14.4055 10 15.712 10C17.0185 10 18.1304 10.4587 19.0478 11.376C19.9653 12.2935 20.424 13.4055 20.424 14.712C20.424 15.1243 20.3668 15.5211 20.2523 15.9022C20.1378 16.2834 19.9946 16.6443 19.8228 16.9848L22.125 19.2728C22.3837 19.5221 22.5107 19.8308 22.506 20.199C22.5013 20.567 22.3743 20.8757 22.125 21.125C21.8663 21.3837 21.5553 21.513 21.1918 21.513C20.8284 21.513 20.5174 21.3837 20.2588 21.125ZM15.712 16.788C16.2895 16.788 16.7775 16.5864 17.176 16.1832C17.5747 15.7799 17.774 15.2895 17.774 14.712C17.774 14.1345 17.5747 13.6464 17.176 13.2478C16.7775 12.8492 16.2895 12.65 15.712 12.65C15.1345 12.65 14.6441 12.8492 14.2408 13.2478C13.8376 13.6464 13.636 14.1345 13.636 14.712C13.636 15.2895 13.8376 15.7799 14.2408 16.1832C14.6441 16.5864 15.1345 16.788 15.712 16.788Z" fill="#5C5C5C"/>
</svg>
