<svg width="24" height="24" viewBox="0 0 24 24" fill="none" xmlns="http://www.w3.org/2000/svg">
<path d="M11.9858 21.749C11.6678 21.749 11.3526 21.6909 11.0403 21.5745C10.7279 21.4582 10.4471 21.2801 10.1978 21.0403L8.44453 19.437C6.6967 17.8485 5.10561 16.242 3.67128 14.6175C2.23678 12.9929 1.51953 11.1704 1.51953 9.15002C1.51953 7.44252 2.08695 6.01652 3.22178 4.87202C4.35661 3.72769 5.77795 3.15552 7.48578 3.15552C8.35028 3.15552 9.16953 3.32177 9.94353 3.65427C10.7174 3.98693 11.3981 4.45943 11.9858 5.07177C12.5736 4.45943 13.2544 3.98693 14.0283 3.65427C14.8023 3.32177 15.6214 3.15552 16.4858 3.15552C18.1974 3.15552 19.6269 3.72769 20.774 4.87202C21.921 6.01652 22.4945 7.44252 22.4945 9.15002C22.4945 11.1704 21.7744 12.997 20.3343 14.63C18.8941 16.2629 17.2834 17.8782 15.5023 19.476L13.788 21.0543C13.5389 21.2943 13.2557 21.47 12.9385 21.5815C12.6215 21.6932 12.3039 21.749 11.9858 21.749ZM10.937 7.82077C10.5102 7.19394 10.0147 6.70135 9.45053 6.34302C8.88636 5.98468 8.23278 5.80552 7.48978 5.80552C6.54111 5.80552 5.75061 6.12235 5.11828 6.75602C4.48578 7.38968 4.16953 8.18769 4.16953 9.15002C4.16953 9.99852 4.47078 10.9001 5.07328 11.8548C5.67578 12.8094 6.39636 13.7355 7.23503 14.633C8.0737 15.5305 8.93678 16.3709 9.82428 17.1543C10.7118 17.9376 11.4323 18.5822 11.9858 19.088C12.5431 18.5714 13.2674 17.9218 14.1588 17.1393C15.0503 16.3569 15.9171 15.5175 16.7593 14.621C17.6016 13.7244 18.3264 12.8027 18.9338 11.856C19.5409 10.9092 19.8445 10.0072 19.8445 9.15002C19.8445 8.18769 19.5253 7.38968 18.8868 6.75602C18.2484 6.12235 17.4504 5.80552 16.4928 5.80552C15.7426 5.80552 15.0878 5.98468 14.5283 6.34302C13.9689 6.70135 13.4759 7.19394 13.049 7.82077C12.92 8.0156 12.7635 8.16177 12.5795 8.25927C12.3954 8.35677 12.1974 8.40552 11.9858 8.40552C11.7743 8.40552 11.5782 8.35677 11.3975 8.25927C11.2169 8.16177 11.0634 8.0156 10.937 7.82077Z" fill="#5C5C5C"/>
</svg>
