<svg width="24" height="24" viewBox="0 0 24 24" fill="none" xmlns="http://www.w3.org/2000/svg">
<g clip-path="url(#clip0_32_641)">
<path d="M10.586 11.8022C9.96682 11.8022 9.45815 11.5707 9.05999 11.1075C8.66199 10.6445 8.51882 10.1043 8.63049 9.487L8.87399 7.98375C9.00732 7.21058 9.36749 6.57833 9.95449 6.087C10.5415 5.59566 11.2233 5.35 12 5.35C12.7942 5.35 13.4846 5.59566 14.0712 6.087C14.6577 6.57833 15.0177 7.21058 15.151 7.98375L15.3945 9.487C15.5062 10.1043 15.363 10.6445 14.965 11.1075C14.5668 11.5707 14.0582 11.8022 13.439 11.8022H10.586ZM11.0445 9.43475H12.9805L12.8087 8.37925C12.7754 8.18358 12.6836 8.02433 12.5332 7.9015C12.3827 7.77883 12.2073 7.7175 12.007 7.7175C11.8067 7.7175 11.6332 7.77883 11.4865 7.9015C11.3397 8.02433 11.2496 8.18358 11.2162 8.37925L11.0445 9.43475ZM3.06824 12.9027C2.6589 12.9204 2.30499 12.8389 2.00649 12.6582C1.70799 12.4774 1.51707 12.2021 1.43374 11.8322C1.4004 11.6737 1.39207 11.5124 1.40874 11.3482C1.4254 11.1842 1.47174 11.0356 1.54774 10.9022C1.54774 10.9282 1.5394 10.8895 1.52274 10.786C1.4894 10.7447 1.4014 10.5359 1.25874 10.1597C1.2254 9.94308 1.2504 9.7355 1.33374 9.537C1.41707 9.33833 1.53007 9.16767 1.67274 9.025C1.6634 9.025 1.68482 9.00833 1.73699 8.975C1.77265 8.6385 1.91074 8.35508 2.15124 8.12475C2.3919 7.89441 2.6904 7.77925 3.04674 7.77925C3.10607 7.77925 3.27307 7.81258 3.54774 7.87925L3.62499 7.85425C3.71782 7.77091 3.83507 7.70608 3.97674 7.65975C4.1184 7.61342 4.26899 7.59025 4.42849 7.59025C4.62332 7.59025 4.79857 7.62175 4.95424 7.68475C5.11007 7.74775 5.23074 7.84125 5.31624 7.96525C5.3334 7.96525 5.34624 7.96967 5.35474 7.9785C5.36324 7.9875 5.37607 7.992 5.39324 7.992C5.63257 8.00967 5.84765 8.08492 6.03849 8.21775C6.22932 8.35058 6.3694 8.53217 6.45874 8.7625C6.49207 8.8865 6.50457 9.006 6.49624 9.121C6.4879 9.23617 6.46707 9.34692 6.43374 9.45325C6.43374 9.46042 6.44207 9.4985 6.45874 9.5675C6.58424 9.692 6.68282 9.83 6.75449 9.9815C6.82615 10.1328 6.86199 10.2887 6.86199 10.449C6.86199 10.5438 6.80724 10.7282 6.69774 11.0022C6.68107 11.0261 6.68107 11.0641 6.69774 11.1162L6.74774 11.543C6.74774 11.9162 6.59265 12.2361 6.28249 12.5027C5.97215 12.7694 5.59465 12.9027 5.14999 12.9027H3.06824ZM19.997 12.9152C19.4113 12.9152 18.9085 12.705 18.4885 12.2845C18.0687 11.8638 17.8587 11.3582 17.8587 10.7677C17.8587 10.5531 17.8904 10.3534 17.9537 10.1687C18.0172 9.98425 18.1033 9.80408 18.212 9.62825L17.4555 8.96075C17.2793 8.80858 17.2477 8.62783 17.3607 8.4185C17.4739 8.209 17.6377 8.10425 17.8522 8.10425H19.9967C20.5866 8.10425 21.0891 8.31342 21.5042 8.73175C21.9196 9.15008 22.1272 9.65292 22.1272 10.2402V10.7742C22.1272 11.3617 21.9187 11.8654 21.5015 12.2852C21.0843 12.7052 20.5828 12.9152 19.997 12.9152ZM-0.226013 16.901V16.425C-0.226013 15.6233 0.165737 14.9811 0.949237 14.4982C1.7329 14.0154 2.74982 13.774 3.99999 13.774C4.14132 13.774 4.2719 13.7757 4.39174 13.7792C4.51174 13.7829 4.63515 13.792 4.76199 13.8065C4.50982 14.1775 4.31832 14.5772 4.18749 15.0057C4.05665 15.4342 3.99124 15.8907 3.99124 16.375V18.226H1.09899C0.73082 18.226 0.417903 18.0972 0.160237 17.8397C-0.0972632 17.5821 -0.226013 17.2692 -0.226013 16.901ZM5.77399 16.901V16.375C5.77399 15.2242 6.34882 14.2946 7.49849 13.5862C8.64815 12.8781 10.148 12.524 11.998 12.524C13.8653 12.524 15.3702 12.8781 16.5125 13.5862C17.6548 14.2946 18.226 15.2242 18.226 16.375V16.901C18.226 17.2692 18.0972 17.5821 17.8397 17.8397C17.5821 18.0972 17.2692 18.226 16.901 18.226H7.09899C6.73082 18.226 6.4179 18.0972 6.16024 17.8397C5.90274 17.5821 5.77399 17.2692 5.77399 16.901ZM20 13.774C21.2678 13.774 22.2892 14.0154 23.064 14.4982C23.8387 14.9811 24.226 15.6233 24.226 16.425V16.901C24.226 17.2692 24.0972 17.5821 23.8397 17.8397C23.5821 18.0972 23.2692 18.226 22.901 18.226H20.0087V16.375C20.0087 15.891 19.9475 15.435 19.825 15.007C19.7025 14.579 19.5188 14.1788 19.274 13.8065C19.4008 13.792 19.5229 13.7829 19.6402 13.7792C19.7576 13.7757 19.8775 13.774 20 13.774ZM12.0025 14.8912C11.2392 14.8912 10.5297 14.9857 9.87399 15.1745C9.21815 15.3632 8.77174 15.5865 8.53474 15.8445H15.4902C15.2366 15.5865 14.786 15.3632 14.1385 15.1745C13.4912 14.9857 12.7792 14.8912 12.0025 14.8912Z" fill="#5C5C5C"/>
</g>
<defs>
<clipPath id="clip0_32_641">
<rect width="24" height="24" fill="white"/>
</clipPath>
</defs>
</svg>
