<svg width="24" height="24" viewBox="0 0 24 24" fill="none" xmlns="http://www.w3.org/2000/svg">
<path d="M9.70432 16.4191C7.83644 16.4191 6.25205 15.7681 4.95113 14.4662C3.65038 13.1644 3 11.5789 3 9.70954C3 7.84021 3.65038 6.25466 4.95113 4.95289C6.25205 3.65097 7.83644 3 9.70432 3C11.5722 3 13.1565 3.65097 14.4573 4.95289C15.7582 6.25466 16.4086 7.84021 16.4086 9.70954C16.4086 10.449 16.3033 11.1312 16.0926 11.7563C15.8819 12.3814 15.5986 12.9304 15.2426 13.4035L20.6326 18.8117C20.8775 19.0659 21 19.3717 21 19.7289C21 20.0862 20.8729 20.3875 20.6186 20.6326C20.3739 20.8775 20.0706 21 19.709 21C19.3473 21 19.0441 20.8775 18.7994 20.6326L13.4231 15.2522C12.9413 15.6084 12.3834 15.8919 11.7495 16.1028C11.1156 16.3136 10.4339 16.4191 9.70432 16.4191ZM9.70432 13.8139C10.8489 13.8139 11.8185 13.4163 12.6132 12.6209C13.4081 11.8255 13.8055 10.855 13.8055 9.70954C13.8055 8.56409 13.4081 7.59362 12.6132 6.79814C11.8185 6.00283 10.8489 5.60517 9.70432 5.60517C8.55976 5.60517 7.59004 6.00283 6.79519 6.79814C6.00049 7.59362 5.60314 8.56409 5.60314 9.70954C5.60314 10.855 6.00049 11.8255 6.79519 12.6209C7.59004 13.4163 8.55976 13.8139 9.70432 13.8139Z" fill="#5C5C5C"/>
</svg>
