<svg width="24" height="24" viewBox="0 0 24 24" fill="none" xmlns="http://www.w3.org/2000/svg">
<path d="M9.11849 16.4435L12 14.713L14.8815 16.4685L14.113 13.1935L16.662 10.9913L13.3227 10.6945L12 7.59125L10.6772 10.6837L7.33799 10.9663L9.88699 13.1793L9.11849 16.4435ZM12 17.812L7.80749 20.3403C7.55832 20.4946 7.30074 20.5611 7.03474 20.5398C6.76874 20.5184 6.53724 20.4305 6.34024 20.276C6.14307 20.1217 5.99107 19.9264 5.88424 19.6903C5.77741 19.4541 5.75841 19.1947 5.82724 18.912L6.94124 14.1445L3.22399 10.9273C3.00066 10.7301 2.86116 10.5051 2.80549 10.2523C2.74966 9.99925 2.75974 9.75283 2.83574 9.513C2.91191 9.27317 3.04724 9.07133 3.24174 8.9075C3.43641 8.74383 3.68332 8.64533 3.98249 8.612L8.87499 8.187L10.7782 3.6805C10.8899 3.405 11.0591 3.20317 11.2857 3.075C11.5126 2.94667 11.7507 2.8825 12 2.8825C12.2493 2.8825 12.4874 2.94667 12.7142 3.075C12.9409 3.20317 13.1101 3.405 13.2217 3.6805L15.125 8.187L20.0175 8.612C20.3167 8.64533 20.5636 8.74383 20.7582 8.9075C20.9527 9.07133 21.0881 9.27317 21.1642 9.513C21.2402 9.75283 21.2503 9.99925 21.1945 10.2523C21.1388 10.5051 20.9993 10.7301 20.776 10.9273L17.0587 14.1445L18.1727 18.912C18.2416 19.1947 18.2226 19.4541 18.1157 19.6903C18.0089 19.9264 17.8569 20.1217 17.6597 20.276C17.4627 20.4305 17.2312 20.5184 16.9652 20.5398C16.6992 20.5611 16.4417 20.4946 16.1925 20.3403L12 17.812Z" fill="#5C5C5C"/>
</svg>
